<svg xmlns="http://www.w3.org/2000/svg" width="400" height="400" viewBox="0 0 400 400">
  <defs>
    <radialGradient id="bgB" cx="50%" cy="35%" r="65%">
      <stop offset="0%" stop-color="#1e1608"/>
      <stop offset="100%" stop-color="#080600"/>
    </radialGradient>
  </defs>
  <rect width="400" height="400" fill="url(#bgB)"/>
  <pattern id="dB" x="0" y="0" width="20" height="20" patternUnits="userSpaceOnUse">
    <circle cx="10" cy="10" r="0.6" fill="#c9a84c" opacity="0.08"/>
  </pattern>
  <rect width="400" height="400" fill="url(#dB)"/>
  <!-- Hair flowing -->
  <path d="M145 125 Q130 70 165 55 Q200 40 235 55 Q270 70 255 125" fill="#c9a84c" opacity="0.18"/>
  <path d="M145 125 Q125 180 135 280" fill="none" stroke="#c9a84c" stroke-width="2" opacity="0.15"/>
  <path d="M255 125 Q275 180 265 280" fill="none" stroke="#c9a84c" stroke-width="2" opacity="0.15"/>
  <!-- Head -->
  <circle cx="200" cy="135" r="55" fill="#c9a84c" opacity="0.25"/>
  <!-- Dress / body -->
  <path d="M200 190 C165 200 145 230 130 320 L270 320 C255 230 235 200 200 190 Z" fill="#c9a84c" opacity="0.18"/>
  <!-- Dress waist detail -->
  <path d="M155 230 Q200 240 245 230" fill="none" stroke="#c9a84c" stroke-width="1" opacity="0.2"/>
  <!-- Veil hint -->
  <path d="M148 110 Q140 160 142 240" fill="none" stroke="#c9a84c" stroke-width="1.5" opacity="0.12"/>
  <!-- Flower/crown hint -->
  <circle cx="200" cy="80" r="8" fill="none" stroke="#c9a84c" stroke-width="1" opacity="0.2"/>
  <circle cx="185" cy="85" r="5" fill="none" stroke="#c9a84c" stroke-width="0.8" opacity="0.15"/>
  <circle cx="215" cy="85" r="5" fill="none" stroke="#c9a84c" stroke-width="0.8" opacity="0.15"/>
  <text x="200" y="380" text-anchor="middle" font-size="11" fill="#c9a84c" opacity="0.2" font-family="Georgia,serif" letter-spacing="5">BRIDE</text>
</svg>
