<svg xmlns="http://www.w3.org/2000/svg" width="400" height="400" viewBox="0 0 400 400">
  <defs>
    <radialGradient id="bgG" cx="50%" cy="35%" r="65%">
      <stop offset="0%" stop-color="#1e1608"/>
      <stop offset="100%" stop-color="#080600"/>
    </radialGradient>
  </defs>
  <rect width="400" height="400" fill="url(#bgG)"/>
  <pattern id="dG" x="0" y="0" width="20" height="20" patternUnits="userSpaceOnUse">
    <circle cx="10" cy="10" r="0.6" fill="#c9a84c" opacity="0.08"/>
  </pattern>
  <rect width="400" height="400" fill="url(#dG)"/>
  <!-- Head -->
  <circle cx="200" cy="135" r="62" fill="#c9a84c" opacity="0.25"/>
  <!-- Body / suit -->
  <path d="M200 197 C150 205 120 230 110 310 L290 310 C280 230 250 205 200 197 Z" fill="#c9a84c" opacity="0.2"/>
  <!-- Suit lapel -->
  <path d="M180 197 L200 240 L220 197" fill="#0f0c06" opacity="0.5"/>
  <path d="M180 197 L165 260 L200 240 Z" fill="#c9a84c" opacity="0.12"/>
  <path d="M220 197 L235 260 L200 240 Z" fill="#c9a84c" opacity="0.12"/>
  <!-- Tie -->
  <path d="M195 210 L200 290 L205 210 L200 200 Z" fill="#c9a84c" opacity="0.2"/>
  <!-- Initial -->
  <text x="200" y="380" text-anchor="middle" font-size="11" fill="#c9a84c" opacity="0.2" font-family="Georgia,serif" letter-spacing="5">GROOM</text>
</svg>
