<svg xmlns="http://www.w3.org/2000/svg" width="600" height="600" viewBox="0 0 600 600">
  <defs>
    <radialGradient id="bg1" cx="50%" cy="40%" r="70%">
      <stop offset="0%" stop-color="#1e1608"/>
      <stop offset="100%" stop-color="#0a0800"/>
    </radialGradient>
  </defs>
  <rect width="600" height="600" fill="url(#bg1)"/>
  <pattern id="d1" x="0" y="0" width="24" height="24" patternUnits="userSpaceOnUse">
    <circle cx="12" cy="12" r="0.7" fill="#c9a84c" opacity="0.08"/>
  </pattern>
  <rect width="600" height="600" fill="url(#d1)"/>
  <rect x="24" y="24" width="552" height="552" fill="none" stroke="#c9a84c" stroke-width="0.8" opacity="0.3"/>
  <!-- Corner marks -->
  <path d="M24 24 L24 60 M24 24 L60 24" stroke="#c9a84c" stroke-width="1.2" fill="none" opacity="0.5"/>
  <path d="M576 24 L576 60 M576 24 L540 24" stroke="#c9a84c" stroke-width="1.2" fill="none" opacity="0.5"/>
  <path d="M24 576 L24 540 M24 576 L60 576" stroke="#c9a84c" stroke-width="1.2" fill="none" opacity="0.5"/>
  <path d="M576 576 L576 540 M576 576 L540 576" stroke="#c9a84c" stroke-width="1.2" fill="none" opacity="0.5"/>
  <!-- Silhouette couple - side view -->
  <ellipse cx="300" cy="320" rx="160" ry="130" fill="#c9a84c" opacity="0.05"/>
  <!-- Person 1 -->
  <circle cx="255" cy="200" r="35" fill="#c9a84c" opacity="0.3"/>
  <ellipse cx="255" cy="310" rx="35" ry="80" fill="#c9a84c" opacity="0.25"/>
  <!-- Person 2 -->
  <circle cx="345" cy="210" r="28" fill="#c9a84c" opacity="0.3"/>
  <path d="M345 240 C310 250 300 300 305 420 L385 420 C390 300 380 250 345 240 Z" fill="#c9a84c" opacity="0.2"/>
  <!-- Cross icon -->
  <text x="300" y="168" text-anchor="middle" font-size="22" fill="#c9a84c" opacity="0.35" font-family="Georgia,serif">✞</text>
  <!-- Label -->
  <text x="300" y="490" text-anchor="middle" font-size="13" fill="#c9a84c" opacity="0.35" font-family="Georgia,serif" font-style="italic">Momen 1</text>
  <text x="300" y="515" text-anchor="middle" font-size="9" fill="#c9a84c" opacity="0.18" font-family="Georgia,serif" letter-spacing="4">GANTI FOTO</text>
</svg>
